<svg width="25" height="25" viewBox="0 0 25 25" fill="none" xmlns="http://www.w3.org/2000/svg">
<path fill-rule="evenodd" clip-rule="evenodd" d="M16.6909 13.3164L11.3208 18.6502C10.8853 19.1219 10.1597 19.1219 9.72424 18.6502C9.28882 18.2148 9.28882 17.4891 9.72424 17.0537L14.2961 12.5181L9.72424 7.9463C9.28882 7.51089 9.28882 6.7852 9.72424 6.34978C10.1597 5.91437 10.8853 5.91437 11.3208 6.34978L16.6909 11.6836C17.1263 12.1553 17.1263 12.8447 16.6909 13.3164ZM0 12.5181C0 15.9652 1.41509 19.0856 3.66473 21.3353C5.91437 23.6212 9.03483 25 12.5181 25C15.9652 25 19.0856 23.6212 21.3353 21.3353C23.6212 19.0856 25 15.9652 25 12.5181C25 9.03483 23.6212 5.91437 21.3353 3.66473C19.0856 1.41509 15.9652 0 12.5181 0C9.03483 0 5.91437 1.41509 3.66473 3.66473C1.41509 5.91437 0 9.03483 0 12.5181H0Z" fill="#068EBA"/>
</svg>
