<svg width="26" height="26" viewBox="0 0 26 26" fill="none" xmlns="http://www.w3.org/2000/svg">
<path d="M23.0996 5.41191L20.8126 3.12509C20.4664 2.78571 19.8992 2.77888 19.5553 3.12281L18.4893 4.18878L22.0791 7.77844L23.1451 6.71476C23.5392 6.32071 23.4595 5.79912 23.1018 5.41191H23.0996ZM17.4141 5.26386L5.13447 17.543L8.7243 21.1326L21.004 8.85352L17.4141 5.26386ZM4.05935 18.6181L3.97507 18.7023L3.07989 23.1871L7.5649 22.292L7.64918 22.2077L4.05935 18.6181ZM21.8832 2.05229L24.218 4.38466C25.1496 5.31624 25.1496 6.85825 24.218 7.78983L8.4783 23.5288C8.3758 23.6313 8.24141 23.7064 8.08879 23.7361L2.26899 24.9C1.74281 25.0116 1.26219 24.5469 1.36925 24.0094L2.52866 18.2035C2.55371 18.0532 2.62433 17.9074 2.74049 17.7935L18.4802 2.05457C19.4118 1.12299 20.9516 1.11843 21.8832 2.05457V2.05229Z" fill="white"/>
</svg>
