<svg width="25" height="25" viewBox="0 0 25 25" fill="none" xmlns="http://www.w3.org/2000/svg">
<path d="M10.7574 12L15.7104 7.047C16.092 6.66535 16.0976 6.02656 15.7071 5.63604C15.3139 5.24279 14.6849 5.24406 14.2961 5.63278L8.63278 11.2961C8.44249 11.4864 8.34568 11.7407 8.34485 11.9962C8.34146 12.2565 8.43896 12.51 8.63278 12.7039L14.2961 18.3672C14.6778 18.7489 15.3166 18.7545 15.7071 18.364C16.1004 17.9707 16.0991 17.3417 15.7104 16.953L10.7574 12ZM12.5 0C19.4036 0 25 5.59644 25 12.5C25 19.4036 19.4036 25 12.5 25C5.59644 25 0 19.4036 0 12.5C0 5.59644 5.59644 0 12.5 0Z" fill="#068EBA"/>
</svg>
