<svg width="20" height="26" viewBox="0 0 20 26" fill="none" xmlns="http://www.w3.org/2000/svg">
<path d="M19.0909 3.46667H15.4545V0.866667C15.4545 0.636812 15.3588 0.416372 15.1883 0.253841C15.0178 0.0913092 14.7866 0 14.5455 0H5.45455C5.21344 0 4.98221 0.0913092 4.81172 0.253841C4.64123 0.416372 4.54545 0.636812 4.54545 0.866667V3.46667H0.909091C0.667985 3.46667 0.436754 3.55798 0.266267 3.72051C0.0957791 3.88304 0 4.10348 0 4.33333V7.8C0 8.02985 0.0957791 8.25029 0.266267 8.41283C0.436754 8.57536 0.667985 8.66667 0.909091 8.66667H1.81818V25.1333C1.81818 25.3632 1.91396 25.5836 2.08445 25.7462C2.25494 25.9087 2.48617 26 2.72727 26H17.2727C17.5138 26 17.7451 25.9087 17.9156 25.7462C18.086 25.5836 18.1818 25.3632 18.1818 25.1333V8.66667H19.0909C19.332 8.66667 19.5632 8.57536 19.7337 8.41283C19.9042 8.25029 20 8.02985 20 7.8V4.33333C20 4.10348 19.9042 3.88304 19.7337 3.72051C19.5632 3.55798 19.332 3.46667 19.0909 3.46667ZM6.36364 1.73333H13.6364V3.46667H6.36364V1.73333ZM16.3636 24.2667H3.63636V8.66667H16.3636V24.2667ZM18.1818 6.93333H1.81818V5.2H18.1818V6.93333ZM6.36364 20.3667V12.5667C6.36364 12.3368 6.45942 12.1164 6.6299 11.9538C6.80039 11.7913 7.03162 11.7 7.27273 11.7C7.51383 11.7 7.74506 11.7913 7.91555 11.9538C8.08604 12.1164 8.18182 12.3368 8.18182 12.5667V20.3667C8.18182 20.5965 8.08604 20.817 7.91555 20.9795C7.74506 21.142 7.51383 21.2333 7.27273 21.2333C7.03162 21.2333 6.80039 21.142 6.6299 20.9795C6.45942 20.817 6.36364 20.5965 6.36364 20.3667ZM11.8182 20.3667V12.5667C11.8182 12.3368 11.914 12.1164 12.0844 11.9538C12.2549 11.7913 12.4862 11.7 12.7273 11.7C12.9684 11.7 13.1996 11.7913 13.3701 11.9538C13.5406 12.1164 13.6364 12.3368 13.6364 12.5667V20.3667C13.6364 20.5965 13.5406 20.817 13.3701 20.9795C13.1996 21.142 12.9684 21.2333 12.7273 21.2333C12.4862 21.2333 12.2549 21.142 12.0844 20.9795C11.914 20.817 11.8182 20.5965 11.8182 20.3667Z" fill="white"/>
</svg>
