<svg width="34" height="21" viewBox="0 0 34 21" fill="none" xmlns="http://www.w3.org/2000/svg">
<path fill-rule="evenodd" clip-rule="evenodd" d="M31.0641 12.1924H2.91096C1.78484 12.1924 0.900024 11.4388 0.900024 10.4797C0.900024 9.52054 1.78484 8.76693 2.91096 8.76693H31.0641C32.1902 8.76693 33.075 9.52054 33.075 10.4797C33.075 11.4388 32.1902 12.1924 31.0641 12.1924ZM31.0641 3.62872H2.91096C1.78484 3.62872 0.900024 2.87512 0.900024 1.91598C0.900024 0.956851 1.78484 0.203247 2.91096 0.203247H31.0641C32.1902 0.203247 33.075 0.956851 33.075 1.91598C33.075 2.87512 32.1902 3.62872 31.0641 3.62872ZM2.91096 17.3306H31.0641C32.1902 17.3306 33.075 18.0842 33.075 19.0434C33.075 20.0025 32.1902 20.7561 31.0641 20.7561H2.91096C1.78484 20.7561 0.900024 20.0025 0.900024 19.0434C0.900024 18.0842 1.78484 17.3306 2.91096 17.3306Z" fill="white"/>
</svg>
